<svg width="4" height="15" viewBox="0 0 4 15" fill="none" xmlns="http://www.w3.org/2000/svg">
<path d="M2.24345 14.13C1.81011 14.13 1.44345 13.98 1.14345 13.68C0.843445 13.38 0.693445 13.0133 0.693445 12.58C0.693445 12.1466 0.843445 11.78 1.14345 11.48C1.44345 11.18 1.81011 11.03 2.24345 11.03C2.66011 11.03 3.01011 11.18 3.29345 11.48C3.59345 11.78 3.74345 12.1466 3.74345 12.58C3.74345 13.0133 3.59345 13.38 3.29345 13.68C3.01011 13.98 2.66011 14.13 2.24345 14.13ZM2.24345 3.42998C1.81011 3.42998 1.44345 3.27998 1.14345 2.97998C0.843445 2.67998 0.693445 2.31331 0.693445 1.87998C0.693445 1.44665 0.843445 1.07998 1.14345 0.779981C1.44345 0.47998 1.81011 0.32998 2.24345 0.32998C2.66011 0.32998 3.01011 0.47998 3.29345 0.779981C3.59345 1.07998 3.74345 1.44665 3.74345 1.87998C3.74345 2.31331 3.59345 2.67998 3.29345 2.97998C3.01011 3.27998 2.66011 3.42998 2.24345 3.42998Z" fill="#7A7A7A"/>
</svg>
