<svg width="21" height="25" viewBox="0 0 21 25" fill="none" xmlns="http://www.w3.org/2000/svg">
  <path d="M17.5686 4.61061C17.8029 4.61061 18.0009 4.69148 18.1626 4.85322C18.3244 5.01497 18.4052 5.21296 18.4052 5.44721V18.8328C18.4052 19.0671 18.3244 19.2651 18.1626 19.4268C18.0009 19.5886 17.8029 19.6694 17.5686 19.6694H2.5098C2.27556 19.6694 2.07756 19.5886 1.91582 19.4268C1.75407 19.2651 1.6732 19.0671 1.6732 18.8328V17.9962H16.732V8.208L10.0392 14.2315L1.6732 6.70211V5.44721C1.6732 5.21296 1.75407 5.01497 1.91582 4.85322C2.07756 4.69148 2.27556 4.61061 2.5098 4.61061H17.5686ZM6.69281 14.6498V16.323H0V14.6498H6.69281ZM4.18301 10.4668V12.14H0V10.4668H4.18301ZM16.3639 6.28381H3.71451L10.0392 11.9727L16.3639 6.28381Z" fill="#F53E32" />
</svg>