<svg width="22" height="22" viewBox="0 0 22 22" fill="none" xmlns="http://www.w3.org/2000/svg">
  <g clip-path="url(#clip0_8330_1350)">
    <path d="M0.5825 8.72001C0.360833 8.63834 0.25 8.54501 0.25 8.44001C0.25 8.33501 0.366667 8.24168 0.6 8.16001L17.295 2.59501C17.5283 2.51334 17.7033 2.52793 17.82 2.63876C17.9367 2.74959 17.96 2.92168 17.89 3.15501L13.13 19.85C13.06 20.0833 12.9667 20.2029 12.85 20.2088C12.7333 20.2146 12.6283 20.1067 12.535 19.885L9.385 12.815L14.635 5.81501L7.635 11.065L0.5825 8.72001Z" fill="black" />
  </g>
  <defs>
    <clipPath id="clip0_8330_1350">
      <rect width="21.48" height="21" fill="white" transform="matrix(1 0 0 -1 0.25 21.8799)" />
    </clipPath>
  </defs>
</svg>