<svg width="19" height="18" viewBox="0 0 19 18" fill="none" xmlns="http://www.w3.org/2000/svg">
  <g clip-path="url(#clip0_8330_1359)">
    <path d="M13.4858 8.83255C13.4575 8.25643 13.3489 7.70866 13.16 7.18921C12.9711 6.66977 12.7114 6.1881 12.3808 5.74421C12.1919 5.94254 11.9747 6.15032 11.7292 6.36755C11.0492 6.93421 10.2653 7.40643 9.3775 7.78421C9.50028 8.03921 9.60889 8.27532 9.70333 8.49255L9.77417 8.69088C10.7847 8.57755 11.885 8.60116 13.075 8.76171L13.4858 8.83255ZM6.84167 3.54838C6.97389 3.72782 7.11083 3.92616 7.2525 4.14338C7.71528 4.81393 8.13556 5.48449 8.51333 6.15505L8.75417 6.58005C9.58528 6.24949 10.3031 5.82921 10.9075 5.31921C11.1247 5.13977 11.3136 4.96032 11.4742 4.78088C10.9736 4.36532 10.4164 4.04421 9.8025 3.81754C9.16972 3.58143 8.51333 3.46338 7.83333 3.46338C7.50278 3.46338 7.17222 3.49171 6.84167 3.54838ZM2.35083 7.71338C2.79472 7.70393 3.27639 7.6756 3.79583 7.62838C4.99528 7.51505 6.14278 7.32143 7.23833 7.04755C6.84167 6.34866 6.4025 5.64032 5.92083 4.92255C5.71306 4.61088 5.51472 4.3181 5.32583 4.04421C4.58917 4.41255 3.95875 4.91546 3.43458 5.55296C2.91042 6.19046 2.54917 6.9106 2.35083 7.71338ZM3.4275 12.7C3.73917 12.2467 4.11222 11.7981 4.54667 11.3542C5.64222 10.2303 6.86056 9.45116 8.20167 9.01671L8.24417 9.00255C8.12139 8.74755 8.00806 8.51616 7.90417 8.30838C6.6575 8.66727 5.31167 8.91282 3.86667 9.04505C3.25278 9.10171 2.68611 9.13005 2.16667 9.13005C2.16667 9.8006 2.28 10.4428 2.50667 11.0567C2.72389 11.6517 3.03083 12.1995 3.4275 12.7ZM9.95833 14.3859C9.88278 13.9703 9.78361 13.5359 9.66083 13.0825C9.42472 12.1381 9.14139 11.222 8.81083 10.3342C7.45083 10.8253 6.30806 11.5478 5.3825 12.5017C4.99528 12.8984 4.68361 13.2903 4.4475 13.6775C4.92917 14.0364 5.45806 14.3127 6.03417 14.5063C6.61028 14.6999 7.21 14.7967 7.83333 14.7967C8.57 14.7967 9.27833 14.6598 9.95833 14.3859ZM11.29 13.6209C11.8378 13.1959 12.2958 12.6882 12.6642 12.098C13.0325 11.5077 13.2781 10.8678 13.4008 10.1784C13.1269 10.1028 12.8342 10.0462 12.5225 10.0084C11.7386 9.89505 10.9878 9.8856 10.27 9.98005C10.5817 10.8489 10.8461 11.732 11.0633 12.6292C11.1483 12.9787 11.2239 13.3092 11.29 13.6209ZM7.83333 16.2134C6.87 16.2134 5.94917 16.0292 5.07083 15.6609C4.23028 15.302 3.48181 14.7944 2.82542 14.138C2.16903 13.4816 1.66139 12.7331 1.3025 11.8925C0.934167 11.0142 0.75 10.0934 0.75 9.13005C0.75 8.16671 0.934167 7.24588 1.3025 6.36755C1.66139 5.52699 2.16903 4.77852 2.82542 4.12213C3.48181 3.46574 4.23028 2.9581 5.07083 2.59921C5.94917 2.23088 6.87 2.04671 7.83333 2.04671C8.79667 2.04671 9.7175 2.23088 10.5958 2.59921C11.4364 2.9581 12.1849 3.46574 12.8413 4.12213C13.4976 4.77852 14.0053 5.52699 14.3642 6.36755C14.7325 7.24588 14.9167 8.16671 14.9167 9.13005C14.9167 10.0934 14.7325 11.0142 14.3642 11.8925C14.0053 12.7331 13.4976 13.4816 12.8413 14.138C12.1849 14.7944 11.4364 15.302 10.5958 15.6609C9.7175 16.0292 8.79667 16.2134 7.83333 16.2134Z" fill="black" />
  </g>
  <defs>
    <clipPath id="clip0_8330_1359">
      <rect width="17.48" height="17" fill="white" transform="matrix(1 0 0 -1 0.75 17.6299)" />
    </clipPath>
  </defs>
</svg>